# xmcd CD database file generated by Grip 3.2.0
# 
# Track frame offsets:
#       150
#       24169
#       44130
#       80054
#       134146
#       169857
#       211832
#       237788
#       293341
# 
# Disc length: 4631 seconds
# 
# Revision: 1
# Processed by: cddbd v1.5.2PL0 Copyright (c) Steve Scherf et al.
# Submitted via: Grip 3.2.0
# 
DISCID=7b121509
DTITLE=Chet Baker and Miles Davis - Complete Performance with The Lighthous
DTITLE=e All-Stars
DYEAR=2003
DGENRE=Jazz
TTITLE0=At Last
TTITLE1=Winter Wonderland
TTITLE2=Loaded
TTITLE3=I'll Remember April
TTITLE4=Pirouette
TTITLE5=Witch Doctor
TTITLE6='Round Midnight
TTITLE7=Infinity Promenade
TTITLE8=A Night in Tunisia
EXTD=
EXTT0=
EXTT1=
EXTT2=
EXTT3=
EXTT4=
EXTT5=
EXTT6=
EXTT7=
EXTT8=
PLAYORDER=
